<?xml version="1.0" encoding="utf-8"?>
<!-- Generator: Adobe Illustrator 16.0.0, SVG Export Plug-In . SVG Version: 6.00 Build 0)  -->
<!DOCTYPE svg PUBLIC "-//W3C//DTD SVG 1.1//EN" "http://www.w3.org/Graphics/SVG/1.1/DTD/svg11.dtd">
<svg version="1.1" id="Layer_1" xmlns="http://www.w3.org/2000/svg" xmlns:xlink="http://www.w3.org/1999/xlink" x="0px" y="0px"
	 width="159.667px" height="159.667px" style="fill:#e7ae3b" viewBox="0 0 159.667 159.667" enable-background="new 0 0 159.667 159.667"
	 xml:space="preserve">
<g>
	<g>
		<g>
			<path d="M95.563,117.681c-1.633,0-2.759-0.607-3.463-1.188c-1.193-0.984-1.877-2.488-1.877-4.126
				c0-0.511,0.006-1.407,0.014-2.604c0.016-2.389,0.04-5.991,0.04-10.133c0-4.175-1.615-5.897-2.11-6.325
				c-0.901-0.78-1.256-2.021-0.902-3.159c0.354-1.139,1.348-1.959,2.533-2.091c9.621-1.07,18.523-4.224,18.523-19.917
				c0-4.03-1.342-7.541-3.989-10.433c-0.785-0.858-1.004-2.092-0.561-3.168c0.262-0.635,1.356-3.708,0.163-8.128
				c-1.578,0.286-4.49,1.232-8.912,4.23c-0.729,0.493-1.639,0.642-2.485,0.407c-3.366-0.934-7.114-1.436-10.838-1.453
				c-3.697,0.017-7.441,0.52-10.8,1.453c-0.847,0.235-1.757,0.087-2.485-0.407c-4.429-2.999-7.346-3.945-8.926-4.23
				c-1.19,4.42-0.095,7.492,0.167,8.127c0.443,1.075,0.226,2.309-0.558,3.167c-2.653,2.904-3.998,6.415-3.998,10.435
				c0,15.689,8.884,18.863,18.484,19.955c1.181,0.135,2.172,0.954,2.525,2.088s0.004,2.372-0.892,3.153
				c-0.459,0.401-1.569,1.628-1.947,4.356c-0.228,1.642-1.745,2.788-3.383,2.561c-1.641-0.227-2.788-1.742-2.561-3.383
				c0.174-1.257,0.477-2.442,0.895-3.527c-7.602-1.595-19.123-6.593-19.123-25.203c0-4.955,1.484-9.36,4.417-13.121
				c-0.659-2.557-1.183-7.126,1.023-12.719c0.331-0.837,1.019-1.482,1.876-1.757c0.849-0.271,5.383-1.275,14.215,4.375
				c3.528-0.86,7.244-1.305,11.068-1.323c3.848,0.018,7.57,0.462,11.103,1.323c8.827-5.652,13.357-4.646,14.203-4.375
				c0.856,0.274,1.543,0.918,1.874,1.754c2.209,5.592,1.689,10.161,1.03,12.719c2.929,3.753,4.412,8.159,4.412,13.123
				c0,18.597-11.512,23.584-19.131,25.17c0.637,1.636,1.086,3.714,1.086,6.323c0,4.159-0.024,7.774-0.041,10.173
				c-0.004,0.713-0.009,1.318-0.011,1.796c1.483-0.092,2.841,0.926,3.131,2.424c0.315,1.626-0.748,3.201-2.375,3.516
				C96.471,117.638,95.999,117.681,95.563,117.681z"/>
		</g>
		<g>
			<path d="M67.847,117.679c-0.418,0-0.869-0.04-1.354-0.129c-1.629-0.302-2.705-1.867-2.403-3.496
				c0.278-1.502,1.626-2.54,3.119-2.449c-0.003-0.529-0.01-1.227-0.017-2.042c-0.006-0.707-0.013-1.502-0.02-2.352
				c-9.711,0.818-14.316-4.557-15.477-7.928c-1.576-3.962-3.6-5.098-3.686-5.145c-0.146-0.069-0.211-0.112-0.345-0.204
				c-0.807-0.552-1.422-1.067-1.883-1.575c-1.113-1.227-1.021-3.124,0.206-4.238c1.227-1.112,3.125-1.021,4.238,0.206
				c0.033,0.036,0.212,0.223,0.707,0.571c1.03,0.579,4.201,2.732,6.373,8.254c0.021,0.053,0.041,0.106,0.058,0.161
				c0.201,0.533,2.394,5.603,12.149,3.481c0.883-0.191,1.808,0.025,2.514,0.591c0.706,0.566,1.119,1.421,1.124,2.326
				c0.011,2.128,0.029,4.19,0.043,5.798c0.012,1.331,0.021,2.355,0.021,2.858c0,1.621-0.68,3.116-1.866,4.103
				C70.637,117.059,69.499,117.679,67.847,117.679z"/>
		</g>
	</g>
	<g>
		<path d="M79.834,159.667C35.813,159.667,0,123.854,0,79.833C0,35.813,35.813,0,79.834,0c44.02,0,79.833,35.813,79.833,79.833
			C159.667,123.854,123.854,159.667,79.834,159.667z M79.834,6C39.122,6,6,39.122,6,79.833c0,40.711,33.122,73.833,73.834,73.833
			c40.711,0,73.833-33.122,73.833-73.833C153.667,39.122,120.545,6,79.834,6z"/>
	</g>
</g>
</svg>
