<?xml version="1.0" encoding="utf-8"?>
<!-- Generator: Adobe Illustrator 16.0.0, SVG Export Plug-In . SVG Version: 6.00 Build 0)  -->
<!DOCTYPE svg PUBLIC "-//W3C//DTD SVG 1.1//EN" "http://www.w3.org/Graphics/SVG/1.1/DTD/svg11.dtd">
<svg version="1.1" id="Layer_1" xmlns="http://www.w3.org/2000/svg" xmlns:xlink="http://www.w3.org/1999/xlink" x="0px" y="0px"
	 width="159.667px" height="159.667px" viewBox="0 0 159.667 159.667" enable-background="new 0 0 159.667 159.667"
	 xml:space="preserve">
<circle fill-rule="evenodd" clip-rule="evenodd" fill="none" stroke="white" stroke-width="6" stroke-linecap="round" stroke-linejoin="round" stroke-miterlimit="10" cx="79.679" cy="79.855" r="76.834"/>
<path fill="#FFFFFF" d="M130.57,50.332c0,0-5.867,5.153-14.025,3.525c-9.992-1.994-19.111,6.843-12.313,16.197
	C113.25,82.458,130.863,68.83,130.57,50.332"/>
<path fill="#FFFFFF" d="M60.25,106.179l39.243-28.257c0,0,4.148-2.64,1.18-6.895l-0.344-0.534c-2.656-4.456-6.771-1.761-6.771-1.761
	L51.831,92.906L60.25,106.179z"/>
<path fill="#FFFFFF" d="M47.032,115.695c0,0-0.663,0.523-2.01,0.352c-1.344-0.172-3.367-1.869-5.779-5.635
	c-2.439-3.748-3.158-6.295-2.761-7.592c0.396-1.299,1.147-1.688,1.147-1.688l12.326-7.141l0.076-0.043l8.634,13.371l0,0
	l-11.632,8.375H47.032z"/>
<g>
	<g>
		<path fill="#FFFFFF" d="M71.345,134.138l-15.272-3.221c-1.15-0.244-1.886-1.371-1.644-2.523l16.975-80.477
			c0.242-1.15,1.373-1.886,2.523-1.643l15.271,3.221c1.15,0.244,1.886,1.372,1.644,2.522l-16.975,80.478
			C73.623,133.644,72.495,134.38,71.345,134.138z M59.034,127.191l11.106,2.344l16.097-76.313L75.13,50.879L59.034,127.191z"/>
	</g>
	<path fill="#FFFFFF" d="M85.24,40.341l1.406,11.497c0.143,1.167,1.207,1.997,2.371,1.853c1.167-0.143,1.997-1.205,1.854-2.371
		l-2.93-23.924c-0.109-0.902-0.781-1.636-1.673-1.823l0,0c-0.891-0.188-1.802,0.21-2.268,0.992L71.66,47.267
		c-0.604,1.01-0.271,2.316,0.737,2.918c0.208,0.125,0.428,0.209,0.65,0.255c0.866,0.183,1.79-0.19,2.268-0.993l5.962-9.999
		L85.24,40.341z"/>
</g>
</svg>
