<?xml version="1.0" encoding="utf-8"?>
<!-- Generator: Adobe Illustrator 16.0.0, SVG Export Plug-In . SVG Version: 6.00 Build 0)  -->
<!DOCTYPE svg PUBLIC "-//W3C//DTD SVG 1.1//EN" "http://www.w3.org/Graphics/SVG/1.1/DTD/svg11.dtd">
<svg version="1.1" id="Layer_1" xmlns="http://www.w3.org/2000/svg" xmlns:xlink="http://www.w3.org/1999/xlink" x="0px" y="0px"
	 width="160.667px" height="160.666px" style="fill:#e7ae3b" viewBox="0 0 160.667 160.666" enable-background="new 0 0 160.667 160.666"
	 xml:space="preserve">
<g>
	<polygon points="109.18,83.911 117.829,83.911 117.829,118.506 39.989,118.506 39.989,83.911 48.638,83.911 48.638,109.857 
		109.18,109.857 	"/>
	<rect x="58.493" y="77.22" transform="matrix(-0.9786 -0.2057 0.2057 -0.9786 141.9019 177.8672)" width="43.406" height="8.677"/>
	
		<rect x="63.487" y="61.888" transform="matrix(-0.9065 -0.4222 0.4222 -0.9065 134.4574 162.2323)" width="43.408" height="8.681"/>
	
		<rect x="72.325" y="47.908" transform="matrix(-0.7684 -0.6399 0.6399 -0.7684 132.8542 152.5706)" width="43.411" height="8.682"/>
	<rect x="57.287" y="92.56" width="43.243" height="8.649"/>
	<g>
		<path d="M80.334,160.666C36.038,160.666,0,124.629,0,80.333C0,36.038,36.038,0,80.334,0c44.296,0,80.333,36.038,80.333,80.333
			C160.667,124.629,124.63,160.666,80.334,160.666z M80.334,7C39.897,7,7,39.897,7,80.333s32.897,73.333,73.334,73.333
			c40.436,0,73.333-32.896,73.333-73.333S120.77,7,80.334,7z"/>
	</g>
</g>
</svg>
